<svg
  width="1024"
  height="1024"
  viewBox="0 0 1024 1024"
  fill="none"
  xmlns="http://www.w3.org/2000/svg"
>
  <defs>
    <linearGradient id="bg" x1="180" y1="124" x2="864" y2="900" gradientUnits="userSpaceOnUse">
      <stop stop-color="#0F1830" />
      <stop offset="0.55" stop-color="#17284A" />
      <stop offset="1" stop-color="#0B1326" />
    </linearGradient>
    <radialGradient id="glow" cx="0" cy="0" r="1" gradientUnits="userSpaceOnUse" gradientTransform="translate(328 264) rotate(42) scale(480 420)">
      <stop stop-color="#79A8FF" stop-opacity="0.46" />
      <stop offset="1" stop-color="#79A8FF" stop-opacity="0" />
    </radialGradient>
    <linearGradient id="accentTop" x1="300" y1="380" x2="728" y2="404" gradientUnits="userSpaceOnUse">
      <stop stop-color="#E8F4FF" />
      <stop offset="0.52" stop-color="#C0EEFF" />
      <stop offset="1" stop-color="#84D8FF" />
    </linearGradient>
    <linearGradient id="accentBottom" x1="312" y1="644" x2="724" y2="620" gradientUnits="userSpaceOnUse">
      <stop stop-color="#8EB7FF" />
      <stop offset="0.48" stop-color="#B0D6FF" />
      <stop offset="1" stop-color="#E9F4FF" />
    </linearGradient>
    <linearGradient id="play" x1="448" y1="408" x2="612" y2="624" gradientUnits="userSpaceOnUse">
      <stop stop-color="#FFFFFF" />
      <stop offset="1" stop-color="#EAF4FF" />
    </linearGradient>
    <filter id="shadow" x="188" y="180" width="648" height="664" filterUnits="userSpaceOnUse" color-interpolation-filters="sRGB">
      <feFlood flood-opacity="0" result="BackgroundImageFix" />
      <feColorMatrix in="SourceAlpha" type="matrix" values="0 0 0 0 0 0 0 0 0 0 0 0 0 0 0 0 0 0 127 0" result="hardAlpha" />
      <feOffset dy="28" />
      <feGaussianBlur stdDeviation="26" />
      <feColorMatrix type="matrix" values="0 0 0 0 0.0156863 0 0 0 0 0.0313726 0 0 0 0 0.0823529 0 0 0 0.34 0" />
      <feBlend mode="normal" in2="BackgroundImageFix" result="effect1_dropShadow_1_1" />
      <feBlend mode="normal" in="SourceGraphic" in2="effect1_dropShadow_1_1" result="shape" />
    </filter>
  </defs>
  <rect x="52" y="52" width="920" height="920" rx="228" fill="url(#bg)" />
  <rect
    x="68"
    y="68"
    width="888"
    height="888"
    rx="212"
    stroke="#FFFFFF"
    stroke-opacity="0.12"
    stroke-width="3"
  />
  <circle cx="316" cy="262" r="286" fill="url(#glow)" />
  <g opacity="0.72">
    <path
      d="M250 258C352 170 540 134 684 190C768 222 828 282 864 366"
      stroke="#FFFFFF"
      stroke-opacity="0.1"
      stroke-width="34"
      stroke-linecap="round"
    />
  </g>
  <g filter="url(#shadow)">
    <path
      d="M328 410C388 322 636 318 696 410"
      stroke="url(#accentTop)"
      stroke-width="64"
      stroke-linecap="round"
    />
    <path
      d="M338 612C414 698 614 700 690 612"
      stroke="url(#accentBottom)"
      stroke-width="64"
      stroke-linecap="round"
    />
    <circle cx="320" cy="410" r="34" fill="#ECF7FF" />
    <circle cx="704" cy="410" r="34" fill="#8ED9FF" />
    <circle cx="330" cy="612" r="34" fill="#7FA7FF" />
    <circle cx="698" cy="612" r="34" fill="#F2F8FF" />
    <path
      d="M450 394C450 382 462 374 473 380L638 477C649 484 649 500 638 507L473 604C462 610 450 602 450 590V394Z"
      fill="url(#play)"
    />
  </g>
</svg>
